<?xml version="1.0" encoding="UTF-8"?><svg id="Logo_web_1" xmlns="http://www.w3.org/2000/svg" viewBox="0 0 886.3573 425.4682"><defs><style>.cls-1{letter-spacing:0em;}.cls-1,.cls-2{fill:#9d9d9c;}.cls-3{fill:#1d1d1b;}.cls-2{letter-spacing:-.0249em;}.cls-4{fill:#fff;}.cls-5{fill:#706f6f;}.cls-6{font-family:ArialRoundedMTBold, 'Arial Rounded MT Bold';font-size:117.3795px;}.cls-7{opacity:.5;}.cls-8{opacity:.25;}.cls-9{fill:#009fe3;}</style></defs><g id="Groupe_Logo"><g id="Bulle"><path class="cls-4" d="M628.7645,289.2792l126.9037-3.2028c10.7872-11.3458,16.8351-17.7069,27.6223-29.0526l-1.3998-55.4628h0l-1.2771-50.6036c-11.3458-10.7872-17.7069-16.8351-29.0526-27.6223l-605.9049,15.2919c-10.7872,11.3458-16.8351,17.7069-27.6223,29.0526l1.2772,50.6036h0l1.3997,55.4628c11.3458,10.7872,17.7069,16.8351,29.0526,27.6223l276.0914-6.968c17.7115-.447,35.2548.2026,51.5035,1.9072l222.4362,23.3346-71.0298-30.3628Z"/><g class="cls-8"><path class="cls-9" d="M751.561,123.335c11.3457,10.7872,17.7068,16.8351,29.0526,27.6223l1.2771,50.6036,1.3998,55.4628c-10.7872,11.3458-16.8351,17.7069-27.6223,29.0527l-126.9037,3.2028,71.0299,30.3628-222.4363-23.3346c-12.9243-1.3559-26.6669-2.0442-40.6625-2.0442-3.5999,0-7.2172.0456-10.8408.137l-276.0914,6.968c-11.3458-10.7871-17.7069-16.8351-29.0526-27.6222l-1.3998-55.4629-1.2771-50.6036c10.7871-11.3457,16.8351-17.7069,27.6222-29.0526l605.905-15.2919M754.283,116.2641l-2.8986.0731-605.905,15.2919-2.8986.0732-1.9979,2.1013-13.8111,14.5263-13.8111,14.5263-1.9978,2.1013.0731,2.8986,1.2771,50.6036,1.3998,55.4629.0732,2.8986,2.1013,1.9979,10.2256,9.7221,18.827,17.9001,2.1014,1.9978,2.8985-.0731,276.0914-6.968c3.5416-.0895,7.1295-.1348,10.6643-.1348,13.8093,0,27.2444.6749,39.9321,2.006l222.4364,23.3346,46.1517,4.8415-42.67-18.2399-41.4975-17.7387,94.7964-2.3925,2.8986-.0732,1.9979-2.1013,13.8111-14.5264,13.8112-14.5263,1.9978-2.1013-.0731-2.8986-1.3998-55.4628-1.2771-50.6036-.0732-2.8986-2.1013-1.9979-4.4543-4.235-24.5983-23.3872-2.1013-1.9979h0Z"/></g><g class="cls-7"><path class="cls-9" d="M751.561,123.335c11.3457,10.7871,17.7068,16.8351,29.0526,27.6223l1.277,50.6035,1.3998,55.4629c-10.7872,11.3457-16.8351,17.7068-27.6223,29.0526l-126.9036,3.2027,71.0298,30.3628-222.4363-23.3345c-12.9243-1.3558-26.6671-2.0442-40.6628-2.0442-3.5999,0-7.217.0456-10.8406.137l-276.0914,6.968c-11.3457-10.7872-17.7068-16.8351-29.0526-27.6223l-1.3997-55.4628-1.2772-50.6036c10.7872-11.3457,16.8351-17.7068,27.6223-29.0526l605.905-15.2918M753.1164,119.2945l-1.6563.0418-605.905,15.2918-1.6564.0418-1.1416,1.2007-27.6223,29.0526-1.1416,1.2007.0418,1.6564,1.2772,50.6036,1.3997,55.4628.0418,1.6564,1.2007,1.1416,29.0526,27.6223,1.2007,1.1416,1.6564-.0418,276.0914-6.968c3.5685-.0901,7.1818-.1357,10.7397-.1357,13.9129,0,27.4534.6805,40.2454,2.0224l222.4363,23.3345,26.3724,2.7665-24.3828-10.4228-54.1541-23.149,108.5566-2.7397,1.6564-.0418,1.1417-1.2007,27.6223-29.0526,1.1416-1.2007-.0418-1.6564-1.3998-55.4629-1.2771-50.6035-.0418-1.6564-1.2007-1.1416-9.3513-8.8909-19.7013-18.7314-1.2008-1.1416h0Z"/></g><path class="cls-9" d="M749.2279,129.3958l22.7971,21.6748,2.6532,2.5225,1.2144,48.1192,1.3371,52.9784-12.0988,12.7251-12.0986,12.7252-124.4193,3.1401-27.5204.6946,25.3134,10.8206,34.4554,14.7285-182.8774-19.1847c-13.1365-1.3781-27.0279-2.0769-41.2885-2.0769-3.6437,0-7.342.0467-10.9923.1389l-273.6069,6.9053-17.0258-16.1875-8.4245-8.0097-1.3371-52.9785-1.2144-48.1192,12.0986-12.7251,12.0986-12.7251,600.9361-15.1665M751.561,123.335l-605.905,15.2919c-10.7871,11.3457-16.8351,17.7069-27.6222,29.0526l1.2771,50.6036,1.3998,55.4629c11.3457,10.7871,17.7068,16.8351,29.0526,27.6222l276.0914-6.968c3.6236-.0914,7.241-.137,10.8408-.137,13.9957,0,27.7383.6884,40.6625,2.0442l222.4363,23.3346-71.0299-30.3628,126.9037-3.2028c10.7872-11.3458,16.8351-17.7069,27.6223-29.0527l-1.3998-55.4628-1.2771-50.6036c-11.3458-10.7872-17.7068-16.8351-29.0526-27.6223h0Z"/></g><text id="Texte" class="cls-6" transform="translate(151.9716 258.7657) rotate(-1.7431) scale(1.0172 1)"><tspan class="cls-3" x="0" y="0">Ask</tspan><tspan class="cls-5" x="215.3295" y="0">4</tspan><tspan class="cls-2" x="285.0813" y="0">g</tspan><tspan class="cls-1" x="355.5206" y="0">ems</tspan></text></g></svg>